<svg version="1.1" id="Layer_1" xmlns="http://www.w3.org/2000/svg" xmlns:xlink="http://www.w3.org/1999/xlink" x="0px" y="0px"
 width="100%" viewBox="0 0 1024 1024" enable-background="new 0 0 1024 1024" xml:space="preserve">
<!-- 白い背景 -->
<rect width="1024" height="1024" fill="#FFFFFF"/>
<!-- 吹き出し部分 -->
<path fill="#000000" opacity="1.000000" stroke="none" 
d="
M745.765625,206.113068 
C799.606995,230.454895 834.110107,270.711609 848.605591,327.746643 
C851.889465,340.667786 853.277710,353.921234 853.285522,367.258728 
C853.333069,447.923676 853.322327,528.588623 853.307129,609.253601 
C853.300842,642.474487 843.775574,672.896729 825.831055,700.692017 
C801.988281,737.623413 769.119873,763.064270 727.237000,776.459412 
C711.845825,781.381897 695.980286,784.377808 679.672852,784.330200 
C658.173462,784.267395 636.673523,784.372314 615.174500,784.263000 
C611.428833,784.243958 608.497314,785.224854 605.816528,787.946960 
C582.666565,811.452942 559.344727,834.789856 536.246765,858.346436 
C523.416321,871.431702 506.385498,872.135864 493.399994,859.177612 
C470.283569,836.109558 447.373108,812.833740 424.538422,789.486450 
C421.019684,785.888733 417.463348,784.145325 412.324921,784.206177 
C391.161621,784.456787 369.990753,784.543884 348.828094,784.269958 
C302.480438,783.670044 262.396576,767.288940 228.716171,735.498169 
C204.314072,712.465210 187.168060,684.861511 178.105759,652.468994 
C174.063507,638.020264 171.703369,623.242188 171.697693,608.184692 
C171.667603,528.353088 171.497177,448.520905 171.756805,368.690155 
C171.883575,329.709717 183.604706,294.272400 207.282150,263.180939 
C237.021240,224.129791 276.627869,201.133270 324.832977,192.987076 
C334.455688,191.360916 344.299255,190.677261 354.142273,190.681625 
C459.139893,190.728043 564.137634,190.633148 669.135010,190.793457 
C695.485291,190.833679 721.107727,195.290024 745.765625,206.113068 
M253.077316,686.428467 
C279.070770,717.421570 312.577972,731.847168 352.730927,731.714844 
C372.896545,731.648376 393.074768,732.144226 413.224762,731.580444 
C430.928314,731.085083 445.217712,737.390808 457.391327,749.915710 
C474.578217,767.598572 492.124023,784.932251 509.353729,802.574036 
C512.509399,805.805115 514.487610,806.021729 517.797363,802.661499 
C536.154968,784.023987 554.713745,765.584106 573.259644,747.132812 
C581.138977,739.293762 590.409851,734.066895 601.570312,732.426392 
C611.694153,730.938232 621.858337,732.014282 631.999634,731.719055 
C651.799561,731.142761 671.633423,732.783875 691.414368,730.822571 
C719.320374,728.055725 743.289612,716.655823 763.234497,697.152954 
C789.589539,671.382080 803.514221,639.939636 803.617249,602.956909 
C803.831299,526.127319 803.702393,449.296692 803.629883,372.466583 
C803.624695,366.993256 803.288452,361.468048 802.496521,356.056122 
C797.372375,321.037140 781.148560,292.206390 753.321838,270.283112 
C730.674866,252.440720 704.846680,242.429245 675.839417,242.382751 
C566.510864,242.207504 457.181854,242.332260 347.853058,242.264526 
C342.653381,242.261307 337.497620,242.741470 332.452484,243.578232 
C299.607086,249.025803 272.184052,264.034088 251.413376,290.435547 
C232.560349,314.399506 222.381271,341.540344 222.327164,372.127075 
C222.201569,443.123962 222.258896,514.121277 222.330582,585.118225 
C222.340317,594.759827 222.257233,604.381042 223.110016,614.050781 
C225.500153,641.152527 235.659012,664.872925 253.077316,686.428467 
z"/>
</svg>
